# xmcd
#
# Track frame offsets:
#	150
#	13316
#	26062
#	40229
#	55104
#	68522
#	82052
#	93358
#	105302
#	114755
#	128062
#	140749
#	153220
#	172099
#	183374
#	200104
#	216086
#	229526
#	242082
#	257000
#	274568
#	288043
#	301004
#	315505
#	327685
#	342234
#
# Disc length: 4789 seconds
#
# Revision: 0
# Processed by: cddbd v1.4PL0 Copyright (c) Steve Scherf et al.
# Submitted via: dBpowerAMP V4.0
#
DISCID=6912b31a
DTITLE=gilberto e gilmar - só sucessos
DYEAR=2003
DGENRE=Country
TTITLE0=só mais uma vez
TTITLE1=música da saudade
TTITLE2=palavras de amor
TTITLE3=boate azul
TTITLE4=capa de revista
TTITLE5=amor, amor, amor
TTITLE6=assino com x
TTITLE7=dama da noite
TTITLE8=amor proibido
TTITLE9=sufoco
TTITLE10=em poucas palavras
TTITLE11=pobre de quem ama na vida
TTITLE12=foi sem querer
TTITLE13=proposta
TTITLE14=eu sempre vou lembrar de você
TTITLE15=parede do destino
TTITLE16=paixão
TTITLE17=chora coração
TTITLE18=vamo quebra tudo (ratinho)
TTITLE19=tá ruim mas tá bom
TTITLE20=nóis é jeca mais é joia
TTITLE21=faz tempo que te tenteio
TTITLE22=hoje eu entro na gandaia
TTITLE23=comi demais
TTITLE24=tá duro
TTITLE25=fruta madura
EXTD=
EXTT0=
EXTT1=
EXTT2=
EXTT3=
EXTT4=
EXTT5=
EXTT6=
EXTT7=
EXTT8=
EXTT9=
EXTT10=
EXTT11=
EXTT12=
EXTT13=
EXTT14=
EXTT15=
EXTT16=
EXTT17=
EXTT18=
EXTT19=
EXTT20=
EXTT21=
EXTT22=
EXTT23=
EXTT24=
EXTT25=
PLAYORDER=
